HIERARCHY
ROOT hip
{
  OFFSET 0 0 0
  CHANNELS 6 Xposition Yposition Zposition Zrotation Yrotation Xrotation
  JOINT abdomen
  {
    OFFSET 0 20.6881 -0.73152
    CHANNELS 3 Zrotation Xrotation Yrotation
    JOINT chest
    {
      OFFSET 0 11.7043 -0.48768
      CHANNELS 3 Zrotation Xrotation Yrotation
      JOINT neck
      {
        OFFSET 0 22.1894 -2.19456
        CHANNELS 3 Zrotation Xrotation Yrotation
        JOINT head
        {
          OFFSET -0.24384 7.07133 1.2192
          CHANNELS 3 Zrotation Xrotation Yrotation
          JOINT leftEye
          {
            OFFSET 4.14528 8.04674 8.04672
            CHANNELS 3 Zrotation Xrotation Yrotation
            End Site
            {
              OFFSET 1 0 0
            }
          }
          JOINT rightEye
          {
            OFFSET -3.6576 8.04674 8.04672
            CHANNELS 3 Zrotation Xrotation Yrotation
            End Site
            {
              OFFSET 1 0 0
            }
          }
        }
      }
      JOINT rCollar
      {
        OFFSET -2.68224 19.2634 -4.8768
        CHANNELS 3 Zrotation Xrotation Yrotation
        JOINT rShldr
        {
          OFFSET -8.77824 -1.95073 1.46304
          CHANNELS 3 Zrotation Xrotation Yrotation
          JOINT rForeArm
          {
            OFFSET -28.1742 -1.7115 0.48768
            CHANNELS 3 Zrotation Xrotation Yrotation
            JOINT rHand
            {
              OFFSET -22.5879 0.773209 7.07136
              CHANNELS 3 Zrotation Xrotation Yrotation
              JOINT rThumb1
              {
                OFFSET -1.2192 -0.487915 3.41376
                CHANNELS 3 Zrotation Xrotation Yrotation
                JOINT rThumb2
                {
                  OFFSET -3.37035 -0.52449 3.41376
                  CHANNELS 3 Zrotation Xrotation Yrotation
                  End Site
                  {
                    OFFSET -1.78271 -1.18214 1.43049
                  }
                }
              }
              JOINT rIndex1
              {
                OFFSET -7.75947 0.938293 5.60832
                CHANNELS 3 Zrotation Xrotation Yrotation
                JOINT rIndex2
                {
                  OFFSET -2.54057 -0.884171 1.56538
                  CHANNELS 3 Zrotation Xrotation Yrotation
                  End Site
                  {
                    OFFSET -1.62519 -0.234802 1.16502
                  }
                }
              }
              JOINT rMid1
              {
                OFFSET -8.24714 1.18213 3.41376
                CHANNELS 3 Zrotation Xrotation Yrotation
                JOINT rMid2
                {
                  OFFSET -3.10165 -0.590103 1.0647
                  CHANNELS 3 Zrotation Xrotation Yrotation
                  End Site
                  {
                    OFFSET -2.48547 -0.328903 0.83742
                  }
                }
              }
              JOINT rRing1
              {
                OFFSET -8.82822 0.546677 1.51678
                CHANNELS 3 Zrotation Xrotation Yrotation
                JOINT rRing2
                {
                  OFFSET -2.60934 -0.819778 -0.0198488
                  CHANNELS 3 Zrotation Xrotation Yrotation
                  End Site
                  {
                    OFFSET -2.33842 -0.294052 0.168128
                  }
                }
              }
              JOINT rPinky1
              {
                OFFSET -8.27202 -0.0477905 -0.4584
                CHANNELS 3 Zrotation Xrotation Yrotation
                JOINT rPinky2
                {
                  OFFSET -1.82734 -0.647385 -0.700984
                  CHANNELS 3 Zrotation Xrotation Yrotation
                  End Site
                  {
                    OFFSET -1.69225 -0.51767 -0.607171
                  }
                }
              }
            }
          }
        }
      }
      JOINT lCollar
      {
        OFFSET 2.68224 19.2634 -4.8768
        CHANNELS 3 Zrotation Xrotation Yrotation
        JOINT lShldr
        {
          OFFSET 8.77824 -1.95073 1.46304
          CHANNELS 3 Zrotation Xrotation Yrotation
          JOINT lForeArm
          {
            OFFSET 28.1742 -1.7115 0.48768
            CHANNELS 3 Zrotation Xrotation Yrotation
            JOINT lHand
            {
              OFFSET 22.5879 0.773209 7.07136
              CHANNELS 3 Zrotation Xrotation Yrotation
              JOINT lThumb1
              {
                OFFSET 1.2192 -0.487915 3.41376
                CHANNELS 3 Zrotation Xrotation Yrotation
                JOINT lThumb2
                {
                  OFFSET 3.37035 -0.52449 3.41376
                  CHANNELS 3 Zrotation Xrotation Yrotation
                  End Site
                  {
                    OFFSET 1.78271 -1.18214 1.43049
                  }
                }
              }
              JOINT lIndex1
              {
                OFFSET 7.75947 0.938293 5.60832
                CHANNELS 3 Zrotation Xrotation Yrotation
                JOINT lIndex2
                {
                  OFFSET 2.54057 -0.884171 1.56538
                  CHANNELS 3 Zrotation Xrotation Yrotation
                  End Site
                  {
                    OFFSET 1.62519 -0.234802 1.16502
                  }
                }
              }
              JOINT lMid1
              {
                OFFSET 8.24714 1.18213 3.41376
                CHANNELS 3 Zrotation Xrotation Yrotation
                JOINT lMid2
                {
                  OFFSET 3.10165 -0.590103 1.0647
                  CHANNELS 3 Zrotation Xrotation Yrotation
                  End Site
                  {
                    OFFSET 2.48547 -0.328903 0.83742
                  }
                }
              }
              JOINT lRing1
              {
                OFFSET 8.82822 0.546677 1.51678
                CHANNELS 3 Zrotation Xrotation Yrotation
                JOINT lRing2
                {
                  OFFSET 2.60934 -0.819778 -0.0198488
                  CHANNELS 3 Zrotation Xrotation Yrotation
                  End Site
                  {
                    OFFSET 2.33842 -0.294052 0.168128
                  }
                }
              }
              JOINT lPinky1
              {
                OFFSET 8.27202 -0.0477905 -0.4584
                CHANNELS 3 Zrotation Xrotation Yrotation
                JOINT lPinky2
                {
                  OFFSET 1.82734 -0.647385 -0.700984
                  CHANNELS 3 Zrotation Xrotation Yrotation
                  End Site
                  {
                    OFFSET 1.69225 -0.51767 -0.607171
                  }
                }
              }
            }
          }
        }
      }
    }
  }
  JOINT rButtock
  {
    OFFSET -8.77824 4.35084 1.2192
    CHANNELS 3 Zrotation Xrotation Yrotation
    JOINT rThigh
    {
      OFFSET 0 -1.70687 -2.19456
      CHANNELS 3 Zrotation Xrotation Yrotation
      JOINT rShin
      {
        OFFSET 0 -36.8199 0.73152
        CHANNELS 3 Zrotation Xrotation Yrotation
        JOINT rFoot
        {
          OFFSET 0.73152 -45.1104 -5.12064
          CHANNELS 3 Zrotation Xrotation Yrotation
          End Site
          {
            OFFSET -1.1221 -3.69964 12.103
          }
        }
      }
    }
  }
  JOINT lButtock
  {
    OFFSET 8.77824 4.35084 1.2192
    CHANNELS 3 Zrotation Xrotation Yrotation
    JOINT lThigh
    {
      OFFSET 0 -1.70687 -2.19456
      CHANNELS 3 Zrotation Xrotation Yrotation
      JOINT lShin
      {
        OFFSET 0 -36.8199 0.73152
        CHANNELS 3 Zrotation Xrotation Yrotation
        JOINT lFoot
        {
          OFFSET -0.73152 -45.1104 -5.12064
          CHANNELS 3 Zrotation Xrotation Yrotation
          End Site
          {
            OFFSET 1.1221 -3.69964 12.103
          }
        }
      }
    }
  }
}
MOTION
Frames:	9
Frame Time:	0.00833333
18.8764 67.6348 40.0127 204.724 66.97 214.219 12.1179 24.7001 -6.12877 3.24892 -0.193133 -0.222655 -6.0426 6.74624 0.733636 11.3443 -46.4117 8.8024 -0.0 0.0 0.0 -0.0 0.0 0.0 -4.19742e-13 -2.26494e-12 1.73263e-13 43.6022 26.4584 50.7199 -28.3591 -35.0975 76.3146 -0.746481 23.8201 3.55423 3.05059e-10 -4.57298e-10 -1.83693e-10 5.12168e-10 -7.78523e-10 -3.20429e-10 3.05074e-10 -4.57311e-10 -1.83721e-10 7.73091 5.47488 0.417314 3.05059e-10 -4.573e-10 -1.83691e-10 2.90554 0.965183 0.102902 3.05068e-10 -4.573e-10 -1.83689e-10 10.2786 0.731801 0.0259123 3.05053e-10 -4.57297e-10 -1.83685e-10 2.22167 -0.733487 -0.20892 -4.19953e-13 -2.26494e-12 1.7311e-13 -89.6793 50.1744 6.59121 21.7322 -15.382 -42.9818 0.284519 -15.0455 2.1646 2.3899e-09 6.42013e-10 -6.05422e-11 4.12407e-09 1.10683e-09 -7.94938e-11 2.3899e-09 6.42012e-10 -6.05288e-11 -7.73091 5.47488 -0.417314 2.3899e-09 6.42013e-10 -6.05382e-11 -2.90554 0.965183 -0.102902 2.3899e-09 6.42012e-10 -6.05405e-11 -10.2786 0.731801 -0.0259123 2.38991e-09 6.42009e-10 -6.05472e-11 -2.22167 -0.733487 0.20892 -2.03217e-16 0.0 -3.88251e-19 -10.9705 -46.7167 -4.63404 -0.764615 51.1583 0.486698 -1.36865 -11.9544 -3.95119 2.03217e-16 0.0 3.88251e-19 7.10145 -7.32177 12.1042 168.626 84.8326 -170.26 1.28118 -0.584729 5.26027
21.3623 67.65 39.5203 209.189 66.2271 217.899 13.8214 25.4264 -4.92588 2.53857 -0.362356 0.271497 -5.82784 6.73896 0.190415 11.2406 -47.2868 7.77358 -0.0 0.0 0.0 -0.0 0.0 0.0 -5.2308e-13 -2.8786e-12 2.33771e-13 42.2222 26.9384 51.6698 -28.3553 -33.5502 72.9651 -0.889061 25.7537 3.88765 6.18192e-10 -8.02228e-10 -2.03562e-10 1.05416e-09 -1.38132e-09 -3.62034e-10 6.18208e-10 -8.02242e-10 -2.03594e-10 7.73091 5.47488 0.417314 6.18192e-10 -8.02229e-10 -2.03559e-10 2.90554 0.965183 0.102902 6.182e-10 -8.02228e-10 -2.03557e-10 10.2786 0.731801 0.0259123 6.18185e-10 -8.02225e-10 -2.03552e-10 2.22167 -0.733487 -0.20892 -5.23257e-13 -2.87861e-12 2.33671e-13 -90.7794 50.6892 8.57722 21.1475 -14.5271 -41.5439 0.267482 -14.5655 2.09279 3.28463e-09 1.07108e-09 -3.50656e-10 5.67138e-09 1.84694e-09 -5.71734e-10 3.28463e-09 1.07108e-09 -3.5064e-10 -7.73091 5.47488 -0.417314 3.28463e-09 1.07108e-09 -3.50653e-10 -2.90554 0.965183 -0.102902 3.28463e-09 1.07108e-09 -3.50655e-10 -10.2786 0.731801 -0.0259123 3.28464e-09 1.07108e-09 -3.50659e-10 -2.22167 -0.733487 0.20892 -2.03217e-16 0.0 -3.88251e-19 -9.1232 -45.3562 -4.8044 -0.812096 52.4333 0.559485 -1.41706 -13.7397 -3.6837 2.03217e-16 0.0 3.88251e-19 9.91544 -10.9358 14.0641 173.559 79.9894 -175.137 1.20737 -0.406415 4.67886
24.0404 67.7203 38.8106 211.189 64.9676 218.443 14.7871 26.2464 -3.89887 2.14445 -0.399336 0.668555 -5.85837 6.70875 -0.389748 11.68 -48.1174 6.95721 -0.0 0.0 0.0 -0.0 0.0 0.0 -4.60586e-13 -2.51698e-12 2.58234e-13 41.218 26.8335 52.6149 -28.2511 -31.3901 68.4452 -0.996436 26.9312 4.10141 1.01975e-09 -1.13342e-09 1.59255e-10 1.75601e-09 -1.97207e-09 2.53736e-10 1.01976e-09 -1.13343e-09 1.59223e-10 7.73091 5.47488 0.417314 1.01975e-09 -1.13342e-09 1.59257e-10 2.90554 0.965183 0.102902 1.01975e-09 -1.13342e-09 1.59259e-10 10.2786 0.731801 0.0259123 1.01974e-09 -1.13342e-09 1.59264e-10 2.22167 -0.733487 -0.20892 -4.60711e-13 -2.51699e-12 2.58122e-13 -91.6682 51.2791 10.4148 20.6795 -13.8761 -40.4211 0.265373 -14.4864 2.08116 3.63601e-09 1.67709e-09 -5.19269e-10 6.2778e-09 2.89383e-09 -8.61431e-10 3.636e-09 1.67709e-09 -5.19252e-10 -7.73091 5.47488 -0.417314 3.63601e-09 1.67709e-09 -5.19269e-10 -2.90554 0.965183 -0.102902 3.63601e-09 1.67709e-09 -5.19269e-10 -10.2786 0.731801 -0.0259123 3.63601e-09 1.67709e-09 -5.19274e-10 -2.22167 -0.733487 0.20892 -2.03217e-16 0.0 -3.88251e-19 -8.05344 -43.0163 -5.05356 -0.812596 52.7475 0.632282 -1.80356 -15.3653 -4.39744 2.03217e-16 0.0 3.88251e-19 11.9562 -14.609 15.7387 174.979 76.0544 -176.463 0.989194 -0.0593626 3.14155
26.6255 67.8917 37.9756 212.262 64.1587 218.74 15.2803 27.1333 -2.9572 1.93567 -0.353245 1.01187 -6.04207 6.65172 -1.00571 12.5207 -48.9303 6.27905 -0.0 0.0 0.0 -0.0 0.0 0.0 -2.94105e-13 -1.54097e-12 2.63483e-13 40.6063 26.266 53.4795 -27.6808 -28.2141 63.366 -1.05085 27.4898 4.2061 1.49877e-09 -1.47911e-09 7.72491e-10 2.59661e-09 -2.59617e-09 1.299e-09 1.49878e-09 -1.47912e-09 7.72462e-10 7.73091 5.47488 0.417314 1.49877e-09 -1.47911e-09 7.7249e-10 2.90554 0.965183 0.102902 1.49878e-09 -1.47911e-09 7.72493e-10 10.2786 0.731801 0.0259123 1.49876e-09 -1.47911e-09 7.72498e-10 2.22167 -0.733487 -0.20892 -2.94159e-13 -1.54098e-12 2.63318e-13 -92.3727 51.9221 12.1518 20.3134 -13.3991 -39.4998 0.271355 -14.6323 2.1032 3.67196e-09 2.41517e-09 -7.00818e-10 6.33897e-09 4.16963e-09 -1.1779e-09 3.67195e-09 2.41517e-09 -7.008e-10 -7.73091 5.47488 -0.417314 3.67196e-09 2.41517e-09 -7.00821e-10 -2.90554 0.965183 -0.102902 3.67196e-09 2.41517e-09 -7.00821e-10 -10.2786 0.731801 -0.0259123 3.67196e-09 2.41517e-09 -7.00827e-10 -2.22167 -0.733487 0.20892 -2.03217e-16 0.0 -3.88251e-19 -7.41459 -40.0369 -5.32191 -0.777907 52.3945 0.70815 -2.44921 -16.8443 -5.69318 2.03217e-16 0.0 3.88251e-19 13.5853 -18.403 17.308 175.637 72.8569 -176.992 0.694837 0.447576 0.929624
29.0574 68.0057 37.1107 211.92 63.617 218.24 15.4705 27.9226 -2.05238 1.83915 -0.2681 1.31632 -6.2781 6.65855 -1.62004 13.4678 -49.7027 5.6366 -0.0 0.0 0.0 -0.0 0.0 0.0 -1.08562e-13 -4.86685e-13 2.35215e-13 40.6275 25.181 54.1608 -26.5402 -24.5726 58.265 -1.09947 28.1263 4.31904 1.9149e-09 -1.78638e-09 1.65311e-09 3.33798e-09 -3.15996e-09 2.80607e-09 1.91489e-09 -1.78638e-09 1.65309e-09 7.73091 5.47488 0.417314 1.91489e-09 -1.78637e-09 1.65311e-09 2.90554 0.965183 0.102902 1.9149e-09 -1.78638e-09 1.65311e-09 10.2786 0.731801 0.0259123 1.91488e-09 -1.78637e-09 1.65312e-09 2.22167 -0.733487 -0.20892 -1.08554e-13 -4.8669e-13 2.34993e-13 -93.0581 52.5998 13.9182 20.0518 -13.0746 -38.8186 0.283686 -14.9593 2.15234 3.55192e-09 3.10378e-09 -8.04085e-10 6.13005e-09 5.36041e-09 -1.36003e-09 3.55191e-09 3.10378e-09 -8.04066e-10 -7.73091 5.47488 -0.417314 3.55192e-09 3.10378e-09 -8.04092e-10 -2.90554 0.965183 -0.102902 3.55192e-09 3.10378e-09 -8.0409e-10 -10.2786 0.731801 -0.0259123 3.55193e-09 3.10378e-09 -8.04099e-10 -2.22167 -0.733487 0.20892 -2.03217e-16 0.0 -3.88251e-19 -6.97925 -36.8432 -5.57213 -0.726318 51.7114 0.779915 -3.22397 -18.0527 -7.23165 2.03217e-16 0.0 3.88251e-19 14.8386 -22.3304 18.6922 176.005 70.3452 -177.213 0.481957 1.08463 -0.96609
31.3802 68.0109 36.236 210.713 63.2188 217.137 15.5361 28.4488 -1.13975 1.78295 -0.187904 1.59676 -6.46173 6.82004 -2.19574 14.2193 -50.4093 4.9219 -0.0 0.0 0.0 -0.0 0.0 0.0 1.11142e-14 1.09729e-13 1.59127e-13 41.5094 23.5293 54.5886 -25.0556 -21.2157 53.1467 -1.20461 29.5361 4.56735 2.12774e-09 -2.0023e-09 2.81809e-09 3.74212e-09 -3.56979e-09 4.80728e-09 2.12773e-09 -2.0023e-09 2.81807e-09 7.73091 5.47488 0.417314 2.12774e-09 -2.0023e-09 2.81808e-09 2.90554 0.965183 0.102902 2.12774e-09 -2.0023e-09 2.81809e-09 10.2786 0.731801 0.0259123 2.12773e-09 -2.0023e-09 2.81809e-09 2.22167 -0.733487 -0.20892 1.11504e-14 1.0973e-13 1.58879e-13 -93.8958 53.2855 15.848 19.8923 -12.8769 -38.4191 0.300946 -15.4236 2.22212 3.43533e-09 3.56139e-09 -7.37854e-10 5.9262e-09 6.15228e-09 -1.24671e-09 3.43533e-09 3.56139e-09 -7.37835e-10 -7.73091 5.47488 -0.417314 3.43533e-09 3.56139e-09 -7.37863e-10 -2.90554 0.965183 -0.102902 3.43533e-09 3.56139e-09 -7.3786e-10 -10.2786 0.731801 -0.0259123 3.43534e-09 3.5614e-09 -7.3787e-10 -2.22167 -0.733487 0.20892 -2.03217e-16 0.0 -3.88251e-19 -6.54004 -33.8597 -5.7721 -0.679386 51.0349 0.842957 -3.94586 -18.8785 -8.65723 2.03217e-16 0.0 3.88251e-19 15.7224 -26.4188 19.802 176.231 68.4651 -177.291 0.461172 1.82263 -1.55459
33.7274 68.0653 35.2886 209.471 62.7036 216.111 15.4424 28.5708 -0.237107 1.79409 -0.107857 1.83683 -6.54569 7.24213 -2.70027 14.674 -51.0991 4.14434 -0.0 0.0 0.0 -0.0 0.0 0.0 5.1412e-14 2.68371e-14 -1.87226e-14 42.6358 21.5654 55.256 -23.3684 -18.2622 47.1462 -1.42342 31.8075 5.00318 2.0764e-09 -2.13584e-09 4.70265e-09 3.71898e-09 -3.84934e-09 8.05364e-09 2.07639e-09 -2.13584e-09 4.70263e-09 7.73091 5.47488 0.417314 2.0764e-09 -2.13584e-09 4.70264e-09 2.90554 0.965183 0.102902 2.0764e-09 -2.13584e-09 4.70265e-09 10.2786 0.731801 0.0259123 2.07639e-09 -2.13584e-09 4.70265e-09 2.22167 -0.733487 -0.20892 5.14193e-14 2.68504e-14 -1.89513e-14 -95.047 53.9499 18.1272 19.8744 -12.8509 -38.3886 0.329453 -16.165 2.33411 3.33348e-09 3.74219e-09 -3.86991e-10 5.746e-09 6.46628e-09 -6.37411e-10 3.33348e-09 3.74219e-09 -3.86971e-10 -7.73091 5.47488 -0.417314 3.33349e-09 3.74219e-09 -3.87e-10 -2.90554 0.965183 -0.102902 3.33348e-09 3.74219e-09 -3.86995e-10 -10.2786 0.731801 -0.0259123 3.33349e-09 3.74219e-09 -3.87004e-10 -2.22167 -0.733487 0.20892 -2.03217e-16 0.0 -3.88251e-19 -6.1417 -31.2565 -5.92268 -0.643242 50.4951 0.904625 -4.67709 -19.2046 -10.2506 2.03217e-16 0.0 3.88251e-19 15.9533 -30.9614 20.561 176.344 67.1775 -177.248 0.681222 2.94692 0.110921
35.9501 67.7199 34.5086 208.611 61.9066 215.436 15.1476 28.4094 0.629917 1.89544 -0.0100163 2.03537 -6.58501 7.84902 -3.16209 15.0006 -51.7661 3.34855 -0.0 0.0 0.0 -0.0 0.0 0.0 5.45807e-14 -4.23266e-13 -2.73997e-13 44.1367 19.2799 56.099 -21.1385 -14.9633 40.3058 -1.75368 34.5981 5.58494 1.84356e-09 -2.20752e-09 7.15417e-09 3.40435e-09 -4.03234e-09 1.22805e-08 1.84356e-09 -2.20752e-09 7.15416e-09 7.73091 5.47488 0.417314 1.84356e-09 -2.20752e-09 7.15417e-09 2.90554 0.965183 0.102902 1.84356e-09 -2.20752e-09 7.15417e-09 10.2786 0.731801 0.0259123 1.84355e-09 -2.20752e-09 7.15418e-09 2.22167 -0.733487 -0.20892 5.45213e-14 -4.23234e-13 -2.7418e-13 -96.4095 54.5935 20.6556 19.994 -13.001 -38.6764 0.371845 -17.1562 2.48566 3.17175e-09 3.74212e-09 1.69585e-10 5.46097e-09 6.46825e-09 3.29415e-10 3.17174e-09 3.74212e-09 1.69605e-10 -7.73091 5.47488 -0.417314 3.17175e-09 3.74212e-09 1.69578e-10 -2.90554 0.965183 -0.102902 3.17174e-09 3.74212e-09 1.69584e-10 -10.2786 0.731801 -0.0259123 3.17176e-09 3.74213e-09 1.69577e-10 -2.22167 -0.733487 0.20892 -2.03217e-16 0.0 -3.88251e-19 -5.87529 -28.7882 -6.04515 -0.605843 49.8988 0.96428 -5.4293 -19.1164 -12.0585 2.03217e-16 0.0 3.88251e-19 15.5167 -35.901 21.0647 176.358 66.5198 -177.093 0.929549 4.36669 3.28189
38.3539 67.9736 33.4693 208.334 60.9252 215.176 14.8134 28.1903 1.49655 2.00953 0.0813527 2.2301 -6.62948 8.45881 -3.63549 15.3016 -52.3001 2.47892 -0.0 0.0 0.0 -0.0 0.0 0.0 1.93353e-14 -9.76419e-13 -5.03579e-13 47.2761 16.2294 56.3786 -18.3161 -11.375 33.6645 -2.19894 37.9553 6.32366 1.50425e-09 -2.18181e-09 9.30786e-09 2.899e-09 -4.04022e-09 1.59964e-08 1.50425e-09 -2.18182e-09 9.30785e-09 7.73091 5.47488 0.417314 1.50425e-09 -2.18182e-09 9.30785e-09 2.90554 0.965183 0.102902 1.50425e-09 -2.18182e-09 9.30786e-09 10.2786 0.731801 0.0259123 1.50424e-09 -2.18181e-09 9.30787e-09 2.22167 -0.733487 -0.20892 1.92093e-14 -9.76371e-13 -5.03713e-13 -97.7503 55.2464 23.1322 20.1783 -13.2362 -39.1198 0.417411 -18.1026 2.63259 2.9807e-09 3.59232e-09 7.32013e-10 5.12565e-09 6.21144e-09 1.30644e-09 2.98069e-09 3.59232e-09 7.32033e-10 -7.73091 5.47488 -0.417314 2.9807e-09 3.59231e-09 7.32008e-10 -2.90554 0.965183 -0.102902 2.98069e-09 3.59232e-09 7.32015e-10 -10.2786 0.731801 -0.0259123 2.98071e-09 3.59233e-09 7.3201e-10 -2.22167 -0.733487 0.20892 -2.03217e-16 0.0 -3.88251e-19 -5.61329 -26.2542 -6.13975 -0.563794 49.0986 1.00708 -5.92657 -18.8368 -13.3701 2.03217e-16 0.0 3.88251e-19 14.8046 -40.7378 21.4223 176.3 66.5522 -176.877 1.04045 5.49273 6.40113
